<?xml version="1.0" encoding="UTF-8"?>
<svg version="1.1" xmlns="http://www.w3.org/2000/svg" width="1254" height="1254">
<path d="M0 0 C0.66590149 0.02298157 1.33180298 0.04596313 2.0178833 0.06964111 C67.8798566 2.39502311 133.81083796 13.8825682 195 39 C195.82902832 39.33821777 196.65805664 39.67643555 197.51220703 40.02490234 C229.30605878 53.08645604 259.74190243 68.91036768 288.6418457 87.50463867 C289.42003662 87.99810791 290.19822754 88.49157715 291 89 C291.85601807 89.57975586 292.71203613 90.15951172 293.59399414 90.75683594 C296.08343555 92.39932404 296.08343555 92.39932404 299.3203125 90.97265625 C300.59704426 90.35316291 301.86485044 89.71506346 303.125 89.0625 C321.79632528 80.18856861 341.38111185 75.82890003 362 75 C362.79921875 74.95875 363.5984375 74.9175 364.421875 74.875 C378.48134997 74.48715241 392.6527098 76.6976288 406 81 C406.9600293 81.3091333 406.9600293 81.3091333 407.93945312 81.62451172 C423.41424419 86.7205205 436.76113002 94.24849269 449 105 C450.03125 105.78375 451.0625 106.5675 452.125 107.375 C473.92377932 127.2782333 486.65590816 158.33957367 488.12597656 187.4987793 C489.11785876 221.9666855 479.95905953 256.68117283 456.8125 283.0625 C456.05582031 283.85785156 455.29914062 284.65320313 454.51953125 285.47265625 C452.37758455 289.0352257 453.03302737 291.02804068 454 295 C454.65929748 297.07869411 455.37214509 299.14083152 456.125 301.1875 C461.93689561 317.94440948 465.77057846 335.41498648 468.75 352.875 C469.0294043 354.48000366 469.0294043 354.48000366 469.31445312 356.11743164 C473.14024026 379.81091534 474.45152292 403.39306793 474.328125 427.36328125 C474.32505532 430.03086514 474.32308848 432.69842915 474.32244873 435.36601257 C474.31881345 440.879077 474.30411315 446.39201253 474.28125 451.9050293 C474.25195114 458.98433868 474.24197862 466.06354751 474.2375679 473.14291096 C474.23402806 478.6150375 474.22363264 484.0871415 474.21169281 489.5592556 C474.20599169 492.17367555 474.20123246 494.78809773 474.19742584 497.40252113 C474.19060078 501.02009783 474.17699727 504.63758007 474.16113281 508.25512695 C474.16001495 509.33583969 474.15889709 510.41655243 474.15774536 511.53001404 C474.15203522 512.50614655 474.14632507 513.48227905 474.14044189 514.48799133 C474.13746723 515.34040059 474.13449257 516.19280985 474.13142776 517.07104969 C474 519 474 519 473 520 C471.58774954 520.0928726 470.17091066 520.11746772 468.75561523 520.11352539 C467.85475693 520.11344986 466.95389862 520.11337433 466.02574158 520.11329651 C465.04658279 520.10813522 464.06742401 520.10297394 463.05859375 520.09765625 C462.06118668 520.0962413 461.0637796 520.09482635 460.03614807 520.09336853 C456.83656876 520.08775114 453.63705831 520.07519571 450.4375 520.0625 C448.27408955 520.05748724 446.11067801 520.05292395 443.94726562 520.04882812 C438.63148675 520.03777607 433.31574829 520.02102104 428 520 C427.7431543 518.95956543 427.48630859 517.91913086 427.22167969 516.84716797 C417.50747771 477.63808937 401.82986005 443.78773965 374 414 C372.86111328 412.77990234 372.86111328 412.77990234 371.69921875 411.53515625 C340.51471772 379.22780903 296.51844958 359.81218363 251.69921875 358.96875 C210.86173221 358.857722 173.2400814 374.8057012 144 403 C143.23300781 403.70382812 142.46601562 404.40765625 141.67578125 405.1328125 C129.98989653 416.16831584 121.29933851 429.78929346 114 444 C113.65485352 444.6604834 113.30970703 445.3209668 112.95410156 446.00146484 C98.86179114 473.23998223 92.65688042 504.33815431 91.34082031 534.80029297 C91.29393066 535.86014404 91.29393066 535.86014404 91.24609375 536.94140625 C91.22216553 537.55701416 91.1982373 538.17262207 91.17358398 538.80688477 C90.92928841 541.89339275 90.45698751 544.93875924 90 548 C89.04561035 547.74831055 88.0912207 547.49662109 87.10791016 547.23730469 C67.54180177 542.1019871 48.14164901 537.28652566 28 535 C27.00629395 534.88575684 26.01258789 534.77151367 24.98876953 534.65380859 C-21.44149985 529.58007833 -66.83285056 535.06789506 -111.72290039 547.43676758 C-114 548 -114 548 -116 548 C-116.03963867 547.12601563 -116.07927734 546.25203125 -116.12011719 545.3515625 C-117.69267052 512.19762043 -121.61689537 480.33619603 -136 450 C-136.37640625 449.20464844 -136.7528125 448.40929687 -137.140625 447.58984375 C-144.83439058 431.61245723 -154.73859614 417.80976718 -167 405 C-167.73089844 404.2059375 -168.46179688 403.411875 -169.21484375 402.59375 C-195.48690595 374.96655647 -233.22144381 360.22163705 -270.97241211 358.97241211 C-307.79909439 358.44284329 -344.33410136 370.10177399 -374 392 C-374.53077148 392.3909082 -375.06154297 392.78181641 -375.60839844 393.18457031 C-389.15645525 403.2539666 -401.8278194 414.47374904 -412 428 C-412.87859391 429.12784755 -413.75751821 430.25543777 -414.63671875 431.3828125 C-421.80309502 440.71357282 -427.61038947 450.5554804 -433 461 C-433.35690918 461.68255859 -433.71381836 462.36511719 -434.08154297 463.06835938 C-438.57699162 471.75941933 -442.10806126 480.67341203 -445.25 489.9375 C-445.56727051 490.8651416 -445.88454102 491.7927832 -446.21142578 492.74853516 C-449.13276796 501.6814254 -451.05737685 510.81593637 -453 520 C-459.53278786 520.02527002 -466.06556321 520.04283292 -472.59838867 520.05493164 C-474.82267732 520.05997317 -477.04696263 520.06680623 -479.27124023 520.07543945 C-482.46078309 520.08751298 -485.65028229 520.09322996 -488.83984375 520.09765625 C-490.34139259 520.10539818 -490.34139259 520.10539818 -491.87327576 520.11329651 C-492.79415482 520.11337204 -493.71503387 520.11344757 -494.66381836 520.11352539 C-495.47878281 520.115746 -496.29374725 520.11796661 -497.13340759 520.12025452 C-499 520 -499 520 -500 519 C-500.10208503 517.56887175 -500.13518352 516.132753 -500.14044189 514.69799805 C-500.14615204 513.76827179 -500.15186218 512.83854553 -500.15774536 511.88064575 C-500.15886322 510.85139984 -500.15998108 509.82215393 -500.16113281 508.76171875 C-500.16609772 507.6831662 -500.17106262 506.60461365 -500.17617798 505.49337769 C-500.19088222 501.89141205 -500.19762541 498.28949086 -500.203125 494.6875 C-500.20888237 492.16723633 -500.21464003 489.64697266 -500.22039795 487.12670898 C-500.22958987 482.49086708 -500.23587205 477.85503836 -500.2388947 473.21918964 C-500.24287927 467.14441966 -500.25538904 461.06983756 -500.28125 454.99511719 C-500.46852415 410.14162648 -498.956202 367.04950669 -488.0625 323.3125 C-487.89406586 322.63622559 -487.72563171 321.95995117 -487.55209351 321.26318359 C-485.91696321 314.76310143 -484.18949509 308.32752404 -481.94140625 302.0078125 C-481.63388428 301.13471436 -481.3263623 300.26161621 -481.00952148 299.36206055 C-480.4426022 297.80807893 -479.84189526 296.26577033 -479.19946289 294.74145508 C-478.27073075 292.48825839 -478.27073075 292.48825839 -478 289 C-479.33257809 286.86669197 -480.78476315 285.26913876 -482.61279297 283.54516602 C-484 282 -484 282 -484 279 C-484.99 278.67 -485.98 278.34 -487 278 C-487 277.01 -487 276.02 -487 275 C-487.66 275 -488.32 275 -489 275 C-490.50410385 272.84033969 -491.86031778 270.70378648 -493.1875 268.4375 C-493.58751221 267.7578418 -493.98752441 267.07818359 -494.3996582 266.37792969 C-513.40156225 233.56093342 -518.99261949 197.32559896 -509.40795898 160.51416016 C-501.72813222 132.92472101 -483.14402884 107.42749189 -458.39453125 92.90625 C-457.27433594 92.2771875 -456.15414062 91.648125 -455 91 C-453.93136719 90.3915625 -452.86273438 89.783125 -451.76171875 89.15625 C-435.24130393 80.30394782 -416.63117988 76.0006516 -398 75 C-397.07445312 74.94585937 -396.14890625 74.89171875 -395.1953125 74.8359375 C-372.08792126 74.16171654 -348.3635682 79.14933701 -327.77001953 89.63549805 C-323.75865675 91.62903375 -323.75865675 91.62903375 -319.3984375 91.48828125 C-316.41260529 89.63550915 -313.50175738 87.70328952 -310.625 85.6875 C-236.12225315 34.8987071 -143.79623275 8.31286093 0 0 Z " fill="#FFFFFF" transform="translate(640,183)"/>
<path d="M0 0 C4.12978559 3.86086932 6.80124999 7.36871363 8.6875 12.6875 C9.1 13.821875 9.5125 14.95625 9.9375 16.125 C12.67656979 29.13558148 8.39159741 41.52411608 1.6875 52.6875 C-0.79030645 56.20033953 -3.48374555 59.45315208 -6.3125 62.6875 C-7.01375 63.50992188 -7.715 64.33234375 -8.4375 65.1796875 C-27.00346294 86.46423788 -50.59244177 99.79168487 -75.3125 112.6875 C-75.43033281 116.31221857 -75.50028808 119.93643403 -75.5625 123.5625 C-75.59601563 124.57570313 -75.62953125 125.58890625 -75.6640625 126.6328125 C-75.82691654 139.3354275 -70.59580251 148.83094449 -62.12890625 158.0703125 C-49.42339466 170.37942882 -33.70345875 175.18780552 -16.31738281 175.04150391 C-9.6624965 174.8542107 -3.61508443 173.9072221 2.6875 171.6875 C3.69167969 171.33558594 4.69585938 170.98367188 5.73046875 170.62109375 C18.95616409 165.54202444 30.34647832 156.60169921 38.875 145.3125 C42.22827655 140.99154445 44.32020651 138.93347885 49.6875 137.6875 C54.62376722 137.31532112 57.80185204 138.42736231 61.625 141.5625 C64.88257654 144.51583818 65.55888653 146.78720572 66.1875 151.1875 C65.89118038 162.07230748 55.09953014 171.07444723 47.7265625 178.09375 C27.47647407 196.59696333 1.20353809 204.92257083 -25.94042969 203.83984375 C-50.52911364 202.26066108 -71.52465114 190.17322711 -88.3125 172.6875 C-89.310235 171.68524012 -90.30943723 170.68442783 -91.3125 169.6875 C-91.89515625 170.37714844 -92.4778125 171.06679688 -93.078125 171.77734375 C-108.37558542 189.31169697 -129.86315657 201.54624592 -153.3125 203.6875 C-180.58906734 205.45238276 -206.39341002 197.67122922 -227.3125 179.6875 C-227.92480469 179.20796875 -228.53710938 178.7284375 -229.16796875 178.234375 C-236.29211229 172.56114399 -246.09969424 163.00664172 -247.6484375 153.66015625 C-247.86684638 149.14917281 -247.12751404 146.18200018 -244.3125 142.6875 C-240.54503599 138.92003599 -237.64479148 137.77787782 -232.3125 137.6875 C-223.79226762 139.33657724 -220.3996757 145.07230815 -215.3125 151.6875 C-204.8285453 164.27827814 -187.2059743 173.38932536 -170.94262695 174.90893555 C-152.45694716 175.79387827 -136.19649146 172.08887495 -121.703125 159.98828125 C-112.15944667 150.80327057 -106.97664924 140.8312044 -106.60546875 127.65429688 C-106.59128906 126.48962891 -106.57710937 125.32496094 -106.5625 124.125 C-106.53285156 122.92552734 -106.50320313 121.72605469 -106.47265625 120.49023438 C-106.40251338 117.55592424 -106.34954128 114.62238307 -106.3125 111.6875 C-107.52099609 111.33171875 -107.52099609 111.33171875 -108.75390625 110.96875 C-122.19893215 106.12795033 -134.77320046 98.01840537 -146.3125 89.6875 C-147.16739014 89.07600098 -147.16739014 89.07600098 -148.03955078 88.45214844 C-166.97768745 74.74074331 -186.16532264 56.74413466 -191.9140625 33.2265625 C-193.75643698 21.48594084 -191.57215217 12.32754603 -185.1875 2.375 C-146.98724596 -33.33393313 -39.29680375 -33.21177046 0 0 Z " fill="#FFFFFF" transform="translate(718.3125,797.3125)"/>
<path d="M0 0 C0.94166016 0.71542969 0.94166016 0.71542969 1.90234375 1.4453125 C10.71736738 9.0810019 16.17542959 22.58719589 17 34 C17.05671875 34.69222656 17.1134375 35.38445313 17.171875 36.09765625 C17.71321219 49.71228647 12.13150062 63.10435707 3 73 C-5.45092072 81.88992959 -17.02469604 87.75256026 -29.3671875 88.30078125 C-30.86967118 88.32020637 -32.37243298 88.32376483 -33.875 88.3125 C-34.66656494 88.30686035 -35.45812988 88.3012207 -36.27368164 88.29541016 C-49.50905707 88.02100332 -61.21032463 82.45825892 -70.86328125 73.39453125 C-82.49055999 60.36432673 -85.11614501 47.16960345 -84.20703125 30.32177734 C-83.16775167 18.666649 -76.41623763 7.43774963 -67.9296875 -0.4453125 C-47.1658944 -17.1740365 -20.5940686 -16.23830113 0 0 Z " fill="#FFFFFF" transform="translate(904,658)"/>
<path d="M0 0 C1.26457031 0.00845947 1.26457031 0.00845947 2.5546875 0.01708984 C15.57191404 0.27109678 27.25234846 5.35028935 36.84375 14.2734375 C47.75408042 26.33952326 51.59380426 40.32701441 50.86669922 56.25097656 C49.74288986 69.17937743 42.75741087 80.18851225 33.60546875 88.98046875 C23.98486693 96.66922281 12.65255393 100.71066874 0.375 100.625 C-0.88957031 100.61654053 -0.88957031 100.61654053 -2.1796875 100.60791016 C-8.32844961 100.48792852 -13.66453899 99.89134331 -19.3125 97.3125 C-20.199375 96.92191406 -21.08625 96.53132812 -22 96.12890625 C-33.99369267 90.24866526 -42.78329019 80.48844551 -47.5625 68.0625 C-52.20265229 53.62647064 -51.50572843 39.40728112 -44.8125 25.75 C-37.27008269 12.93898236 -26.7115399 5.93696069 -12.97265625 1.1484375 C-8.57520935 0.14411131 -4.49520353 -0.03136605 0 0 Z " fill="#FFFFFF" transform="translate(384.3125,645.6875)"/>
<path d="M0 0 C1.01360596 0.11384033 2.02721191 0.22768066 3.0715332 0.3449707 C22.6051552 2.73505309 22.6051552 2.73505309 27.1875 7.125 C30.18835448 11.26410963 30.3460329 14.60752292 30 19.625 C28.34113226 23.27450902 26.5416427 25.71059854 23 27.625 C16.97598414 28.73278964 12.10885029 28.40420635 6.125 27.3125 C-62.49813846 16.01803185 -131.67220207 30.63810354 -194.95507812 57.34741211 C-195.95990234 57.76901611 -196.96472656 58.19062012 -198 58.625 C-198.87720703 59.00213135 -199.75441406 59.3792627 -200.65820312 59.76782227 C-204.14133135 61.0427663 -207.38283428 61.29038861 -211 60.625 C-215.39739858 58.10056748 -217.18622418 56.12952335 -218.5625 51.25 C-219.35734625 46.43275002 -218.49713887 43.78689812 -216 39.625 C-213.19030055 37.20617215 -210.30179945 35.73262313 -206.90625 34.27734375 C-205.89079102 33.84204346 -204.87533203 33.40674316 -203.82910156 32.95825195 C-157.55464478 13.55732284 -109.11117819 0.11909462 -58.75 -1.9375 C-57.73639404 -1.9792334 -56.72278809 -2.0209668 -55.6784668 -2.06396484 C-37.00280637 -2.79470617 -18.56603946 -2.14794198 0 0 Z " fill="#FFFFFF" transform="translate(1142,752.375)"/>
<path d="M0 0 C3.09888765 3.23974618 4.20018696 5.61939834 4.5 10 C4.25687833 14.23842116 2.83203009 16.79533437 0 20 C-4.03563359 22.8432873 -6.7902048 23.24297986 -11.63085938 22.54174805 C-16.42546903 21.44537142 -20.86498304 19.36170299 -25.375 17.4375 C-60.48930792 2.98920895 -97.09929641 -3.96587439 -135 -5 C-136.18335938 -5.04125 -137.36671875 -5.0825 -138.5859375 -5.125 C-165.83610841 -5.62385896 -193.68739448 -2.02849341 -220.25561523 3.86865234 C-226.51467553 5.18395741 -232.1862258 5.71273212 -237.875 2.25 C-240.75803492 -0.8026252 -241.93495331 -2.8993744 -242.06640625 -7.14453125 C-241.83868216 -11.30567143 -241.56334755 -13.29814131 -238.87109375 -16.65234375 C-235.5725225 -19.34954282 -233.26535299 -20.12151068 -229.125 -21.0625 C-228.43720459 -21.21968506 -227.74940918 -21.37687012 -227.04077148 -21.53881836 C-208.88885972 -25.55730217 -190.48277532 -28.10467298 -172 -30 C-170.93386475 -30.11021484 -170.93386475 -30.11021484 -169.84619141 -30.22265625 C-114.82371316 -35.56989115 -48.41869602 -28.00302737 0 0 Z " fill="#FFFFFF" transform="translate(1168,863)"/>
<path d="M0 0 C1.0977475 -0.00570007 2.195495 -0.01140015 3.32650757 -0.01727295 C5.64083921 -0.0266574 7.95518383 -0.03323058 10.26953125 -0.03710938 C13.71640085 -0.04671603 17.16264721 -0.07776271 20.609375 -0.109375 C41.57834921 -0.21005667 62.17812756 1.88899346 82.7734375 5.828125 C83.42289337 5.95118011 84.07234924 6.07423523 84.7414856 6.20101929 C111.47040069 11.31492389 138.35774638 19.05500321 163.15405273 30.3034668 C165.8131339 31.50296663 168.50939033 32.60318282 171.2109375 33.703125 C173.19200159 34.53193753 175.17129931 35.36499033 177.1484375 36.203125 C177.9528125 36.5434375 178.7571875 36.88375 179.5859375 37.234375 C182.56592963 38.59290082 184.89524411 39.93410702 187.1484375 42.328125 C188.65835961 46.66915107 188.93810673 50.66796045 188.1484375 55.203125 C186.25181565 58.82196668 184.08483175 60.89099358 180.1484375 62.203125 C172.51672408 63.02606799 167.07938034 60.38956082 160.2109375 57.265625 C116.12722655 37.96672133 69.35687655 26.59475663 21.1484375 25.203125 C19.86324219 25.161875 18.57804687 25.120625 17.25390625 25.078125 C-1.43089018 24.78474252 -20.31657896 26.29788723 -38.7487793 29.32543945 C-45.08073271 30.31432281 -50.86147947 30.76316832 -56.7265625 27.703125 C-59.74125256 24.15643081 -60.66394841 20.83093925 -60.8515625 16.203125 C-59.63316748 11.55799398 -58.06181288 8.71305066 -53.96582031 6.11987305 C-49.03821162 3.98324826 -43.5113471 3.67138099 -38.2265625 3.015625 C-37.01871094 2.85126953 -35.81085938 2.68691406 -34.56640625 2.51757812 C-23.04437018 0.98585428 -11.62433544 0.04863305 0 0 Z " fill="#FFFFFF" transform="translate(142.8515625,750.796875)"/>
<path d="M0 0 C1.01352539 0.17821289 2.02705078 0.35642578 3.07128906 0.54003906 C5.59592645 0.99833025 8.11089686 1.48741065 10.625 2 C11.31013672 2.12938965 11.99527344 2.2587793 12.70117188 2.39208984 C17.71386416 3.50101278 20.44857306 5.43278894 24 9 C25.78673235 12.49927512 26.37821009 16.16196967 25.58203125 20.03125 C24.17116092 23.71042566 22.54273546 26.27650707 19 28 C11.85967885 29.49889094 5.93684022 28.2749769 -1.125 26.75 C-68.1964313 13.15812197 -140.24757822 16.96597935 -202.9921875 46.13671875 C-207.12196517 47.32201858 -209.78864652 46.87086631 -214 46 C-217.59049221 43.19004958 -220.07694908 40.51269338 -221 36 C-220.72569909 31.15106771 -220.04491605 28.08418577 -216.609375 24.51953125 C-212.15684459 21.06961908 -206.96038057 19.20755547 -201.75 17.1875 C-200.65389404 16.75735596 -199.55778809 16.32721191 -198.4284668 15.8840332 C-134.46143316 -8.74457147 -67.04577313 -11.82943589 0 0 Z " fill="#FFFFFF" transform="translate(303,839)"/>
<path d="M0 0 C0.91910156 -0.020625 1.83820313 -0.04125 2.78515625 -0.0625 C11.36702906 -0.11217799 11.36702906 -0.11217799 15.25 3.25 C17.3795004 6.33811794 18.34193529 9.66124335 18.125 13.41015625 C17.22112101 17.72779249 15.87785281 20.55502363 12.25 23.25 C8.82937858 24.82775218 5.95783381 25.5324166 2.20703125 25.7421875 C1.22951904 25.80494873 0.25200684 25.86770996 -0.75512695 25.93237305 C-2.33040161 26.02772339 -2.33040161 26.02772339 -3.9375 26.125 C-59.13964981 30.10567271 -116.46155205 47.14619393 -158.40136719 84.67163086 C-162.03254825 87.86859787 -165.10836185 90.11429941 -170.03125 90.3671875 C-175.02682409 89.82189596 -178.21064384 89.11111581 -181.75 85.25 C-184.15202257 81.42860046 -183.84562758 77.96843458 -183.52734375 73.62890625 C-181.60522169 67.7466332 -176.31268167 63.77702878 -171.5625 60.125 C-170.96083008 59.65908447 -170.35916016 59.19316895 -169.73925781 58.71313477 C-122.39066013 22.5884873 -59.8280983 0.34138715 0 0 Z " fill="#FFFFFF" transform="translate(310.75,897.75)"/>
<path d="M0 0 C1.18319824 0.10151367 2.36639648 0.20302734 3.58544922 0.30761719 C24.66502186 2.23741752 45.17759458 5.9936651 65.625 11.4375 C66.49286133 11.66663086 67.36072266 11.89576172 68.25488281 12.13183594 C104.12083642 21.77352226 152.65983249 40.47553309 175.625 71.4375 C177.23460241 74.65670482 177.08658126 77.94638539 176.625 81.4375 C174.83048969 85.09554024 173.23377052 86.99861892 169.9375 89.375 C165.38920635 90.83388664 162.16181459 91.06444615 157.625 89.4375 C153.66746286 86.76902366 150.19458167 83.59722316 146.625 80.4375 C104.55563075 45.81502042 49.27664816 29.13304557 -4.53320312 26.25878906 C-11.20014045 25.84646463 -17.0787941 25.40408531 -22.25 20.75 C-24.28932994 16.55804401 -24.9579771 12.74067009 -23.8203125 8.24609375 C-22.10957021 4.13577047 -21.09546034 2.81310332 -16.98828125 0.671875 C-11.34323791 -1.23237692 -5.84169522 -0.54962864 0 0 Z " fill="#FFFFFF" transform="translate(950.375,897.5625)"/>
</svg>
